<svg width="40.000000" height="21.000000" viewBox="0 0 40 21" fill="none" xmlns="http://www.w3.org/2000/svg" xmlns:xlink="http://www.w3.org/1999/xlink">
	<desc>
			Created with Pixso.
	</desc>
	<defs>
		<clipPath id="clip563_39416">
			<rect id="Frame 1000003274" rx="3.500000" width="39.000000" height="20.000000" transform="translate(0.500000 0.500000)" fill="white" fill-opacity="0"/>
		</clipPath>
	</defs>
	<rect id="Frame 1000003274" rx="3.500000" width="39.000000" height="20.000000" transform="translate(0.500000 0.500000)" fill="#FE8505" fill-opacity="1.000000"/>
	<g clip-path="url(#clip563_39416)">
		<path id="6+" d="M18.71 12.18C18.71 13.81 17.56 15.14 15.79 15.12C14.37 15.1 12.76 14.2 12.76 10.97C12.76 7.89 13.97 6.15 15.93 6.15C17.4 6.15 18.43 7.09 18.64 8.45L17.6 8.45C17.41 7.66 16.85 7.08 15.93 7.08C14.58 7.08 13.76 8.32 13.75 10.45L13.82 10.45C14.29 9.72 15.07 9.29 15.97 9.29C17.46 9.29 18.71 10.5 18.71 12.18ZM23.85 13.46L22.9 13.46L22.9 11.12L20.56 11.12L20.56 10.17L22.9 10.17L22.9 7.83L23.85 7.83L23.85 10.17L26.19 10.17L26.19 11.12L23.85 11.12L23.85 13.46ZM13.91 12.2C13.9 13.24 14.7 14.18 15.79 14.18C16.87 14.18 17.69 13.29 17.69 12.18C17.69 11.1 16.9 10.22 15.83 10.22C14.75 10.22 13.91 11.15 13.91 12.2Z" fill="#FFFFFF" fill-opacity="1.000000" fill-rule="evenodd"/>
	</g>
</svg>
