<svg width="17.012207" height="8.533203" viewBox="0 0 17.0122 8.5332" fill="none" xmlns="http://www.w3.org/2000/svg" xmlns:xlink="http://www.w3.org/1999/xlink">
	<desc>
			Created with Pixso.
	</desc>
	<defs/>
	<path id="Polygon 13" d="M0.44 2.56L4.44 6.58Q5.27 7.41 6.34 7.84Q7.38 8.27 8.5 8.27Q9.62 8.27 10.66 7.84Q11.74 7.41 12.56 6.58L16.56 2.56L14.44 0.44L10.43 4.46Q10.04 4.86 9.53 5.06Q9.04 5.27 8.5 5.27Q7.96 5.27 7.47 5.06Q6.96 4.86 6.57 4.46L2.56 0.44L0.44 2.56ZM16.54 2.56L16.56 2.56C17.16 1.96 17.15 1.03 16.56 0.44C15.96 -0.15 15.03 -0.15 14.44 0.44L14.44 0.47L16.54 2.56ZM2.56 0.47L2.56 0.44C1.97 -0.15 1.04 -0.15 0.44 0.44C-0.15 1.03 -0.15 1.96 0.44 2.56L0.47 2.56L2.56 0.47Z" fill="#FE8505" fill-opacity="1.000000" fill-rule="evenodd"/>
</svg>
