<svg width="17.012207" height="8.533203" viewBox="0 0 17.0122 8.5332" fill="none" xmlns="http://www.w3.org/2000/svg" xmlns:xlink="http://www.w3.org/1999/xlink">
	<desc>
			Created with Pixso.
	</desc>
	<defs/>
	<path id="Polygon 13" d="M0.44 5.96L4.44 1.94Q5.27 1.12 6.34 0.68Q7.38 0.26 8.5 0.26Q9.62 0.26 10.66 0.68Q11.74 1.12 12.56 1.94L16.56 5.96L14.44 8.08L10.43 4.06Q10.04 3.67 9.53 3.46Q9.04 3.26 8.5 3.26Q7.96 3.26 7.47 3.46Q6.96 3.67 6.57 4.06L2.56 8.08L0.44 5.96ZM16.54 5.96L16.56 5.96C17.16 6.56 17.15 7.49 16.56 8.08C15.96 8.68 15.03 8.68 14.44 8.08L14.44 8.05L16.54 5.96ZM2.56 8.05L2.56 8.08C1.97 8.68 1.04 8.68 0.44 8.08C-0.15 7.49 -0.15 6.56 0.44 5.96L0.47 5.96L2.56 8.05Z" fill="#FE8505" fill-opacity="1.000000" fill-rule="evenodd"/>
</svg>
