<svg width="6.769043" height="14.751610" viewBox="0 0 6.76904 14.7516" fill="none" xmlns="http://www.w3.org/2000/svg" xmlns:xlink="http://www.w3.org/1999/xlink">
	<desc>
			Created with Pixso.
	</desc>
	<defs/>
	<path id="Polygon 13" d="M4.9 14.41L1.28 10.58Q0.65 9.92 0.32 9.07Q0 8.25 0 7.37Q0 6.49 0.32 5.67Q0.65 4.82 1.28 4.16L4.9 0.34L6.46 1.82L2.84 5.64Q2.5 6 2.32 6.45Q2.15 6.89 2.15 7.37Q2.15 7.85 2.32 8.29Q2.5 8.74 2.84 9.1L6.46 12.92L4.9 14.41ZM4.9 0.36L4.9 0.34C5.32 -0.1 5.99 -0.12 6.42 0.29C6.86 0.71 6.88 1.38 6.46 1.82L6.44 1.82L4.9 0.36ZM6.44 12.92L6.46 12.92C6.88 13.36 6.86 14.03 6.42 14.45C5.99 14.86 5.32 14.84 4.9 14.41L4.9 14.38L6.44 12.92Z" fill="#E3E2E2" fill-opacity="1.000000" fill-rule="evenodd"/>
</svg>
