<svg width="17.000000" height="17.000000" viewBox="0 0 17 17" fill="none" xmlns="http://www.w3.org/2000/svg" xmlns:xlink="http://www.w3.org/1999/xlink">
	<desc>
			Created with Pixso.
	</desc>
	<defs>
		<clipPath id="clip563_39349">
			<rect id="Frame 1000003620" rx="-0.500000" width="16.000000" height="16.000000" transform="translate(0.500000 0.500000)" fill="white" fill-opacity="0"/>
		</clipPath>
	</defs>
	<g clip-path="url(#clip563_39349)">
		<path id="Rectangle 1290" d="M4 2L13 2C14.1 2 15 2.89 15 4L15 6L2 6L2 4C2 2.89 2.89 2 4 2Z" fill="#FE8505" fill-opacity="1.000000" fill-rule="evenodd"/>
		<rect id="Rectangle 1291" x="2.500000" y="2.500000" rx="2.000000" width="12.000000" height="12.000000" stroke="#FE8505" stroke-opacity="1.000000" stroke-width="1.000000"/>
		<rect id="Rectangle 1292" x="4.000000" y="8.000000" width="1.000000" height="1.000000" fill="#FE8505" fill-opacity="1.000000"/>
		<rect id="Rectangle 1293" x="6.000000" y="8.000000" width="1.000000" height="1.000000" fill="#FE8505" fill-opacity="1.000000"/>
		<rect id="Rectangle 1294" x="8.000000" y="8.000000" width="1.000000" height="1.000000" fill="#FE8505" fill-opacity="1.000000"/>
		<rect id="Rectangle 1295" x="10.000000" y="8.000000" width="1.000000" height="1.000000" fill="#FE8505" fill-opacity="1.000000"/>
		<rect id="Rectangle 1296" x="12.000000" y="8.000000" width="1.000000" height="1.000000" fill="#FE8505" fill-opacity="1.000000"/>
		<rect id="Rectangle 1292" x="4.000000" y="10.000000" width="1.000000" height="1.000000" fill="#FE8505" fill-opacity="1.000000"/>
		<rect id="Rectangle 1293" x="6.000000" y="10.000000" width="1.000000" height="1.000000" fill="#FE8505" fill-opacity="1.000000"/>
		<rect id="Rectangle 1294" x="8.000000" y="10.000000" width="1.000000" height="1.000000" fill="#FE8505" fill-opacity="1.000000"/>
		<rect id="Rectangle 1295" x="10.000000" y="10.000000" width="1.000000" height="1.000000" fill="#FE8505" fill-opacity="1.000000"/>
		<rect id="Rectangle 1296" x="12.000000" y="10.000000" width="1.000000" height="1.000000" fill="#FE8505" fill-opacity="1.000000"/>
		<rect id="Rectangle 1292" x="4.000000" y="12.000000" width="1.000000" height="1.000000" fill="#FE8505" fill-opacity="1.000000"/>
		<rect id="Rectangle 1293" x="6.000000" y="12.000000" width="1.000000" height="1.000000" fill="#FE8505" fill-opacity="1.000000"/>
		<rect id="Rectangle 1294" x="8.000000" y="12.000000" width="1.000000" height="1.000000" fill="#FE8505" fill-opacity="1.000000"/>
		<rect id="Rectangle 1295" x="10.000000" y="12.000000" width="1.000000" height="1.000000" fill="#FE8505" fill-opacity="1.000000"/>
		<rect id="Rectangle 1296" x="12.000000" y="12.000000" width="1.000000" height="1.000000" fill="#FE8505" fill-opacity="1.000000"/>
	</g>
</svg>
