<svg width="7.811035" height="3.844238" viewBox="0 0 7.81104 3.84424" fill="none" xmlns="http://www.w3.org/2000/svg" xmlns:xlink="http://www.w3.org/1999/xlink">
	<desc>
			Created with Pixso.
	</desc>
	<defs/>
	<path id="Polygon 46" d="M7.03 2.18L5.77 3.18Q5.37 3.51 4.88 3.67Q4.4 3.84 3.9 3.84Q3.4 3.84 2.92 3.67Q2.43 3.51 2.03 3.18L2.03 3.18L0.78 2.18L2.03 0.62L3.28 1.62L3.28 1.62Q3.55 1.84 3.9 1.84Q4.25 1.84 4.53 1.62L5.78 0.62L7.03 2.18ZM0.79 2.19L0 1.56L1.24 0L2.04 0.63L0.79 2.19ZM5.76 0.63L6.56 0L7.81 1.56L7.01 2.19L5.76 0.63Z" fill="#4B545A" fill-opacity="1.000000" fill-rule="evenodd"/>
</svg>
