<svg width="35.998535" height="36.000488" viewBox="0 0 35.9985 36.0005" fill="none" xmlns="http://www.w3.org/2000/svg" xmlns:xlink="http://www.w3.org/1999/xlink">
	<desc>
			Created with Pixso.
	</desc>
	<defs/>
	<path id="Vector" d="M17.26 36L18.75 36C26.89 36 30.96 36 33.49 33.47C36.02 30.94 35.99 26.87 35.99 18.75L35.99 17.23C35.99 9.12 35.99 5.05 33.49 2.52C30.98 0 26.89 0 18.75 0L17.26 0C9.12 0 5.05 0 2.52 2.52C0 5.05 0 9.12 0 17.23L0 18.75C0 26.87 0 30.94 2.52 33.47C5.05 36 9.12 36 17.26 36Z" fill="#1877F2" fill-opacity="1.000000" fill-rule="nonzero"/>
	<path id="Intersect" d="M14.2004 35.9404L14.2004 24.1865L9.9458 24.1865L9.9458 19.3291L14.2004 19.3291L14.2004 15.627C14.2004 11.415 16.7021 9.08887 20.5298 9.08887C22.363 9.08887 24.2808 9.41699 24.2808 9.41699L24.2808 13.5522L22.1677 13.5522C20.0862 13.5522 19.437 14.8477 19.437 16.1768L19.437 19.3291L24.0845 19.3291L23.3416 24.1865L19.437 24.1865L19.437 36.0005C17.4509 35.9995 15.719 35.9932 14.2004 35.9404Z" clip-rule="evenodd" fill="#FFFFFF" fill-opacity="1.000000" fill-rule="evenodd"/>
</svg>
