<svg width="171.000244" height="33.553223" viewBox="0 0 171 33.5532" fill="none" xmlns="http://www.w3.org/2000/svg" xmlns:xlink="http://www.w3.org/1999/xlink">
	<desc>
			Created with Pixso.
	</desc>
	<defs>
		<linearGradient x1="142.760086" y1="23.253420" x2="164.216217" y2="23.253420" id="paint_linear_2_21989_0" gradientUnits="userSpaceOnUse">
			<stop stop-color="#FF8F01"/>
			<stop offset="1.000000" stop-color="#ED1C24"/>
		</linearGradient>
		<linearGradient x1="99.064178" y1="24.499077" x2="160.033905" y2="24.499077" id="paint_linear_2_21990_0" gradientUnits="userSpaceOnUse">
			<stop stop-color="#FF8F01"/>
			<stop offset="1.000000" stop-color="#ED1C24"/>
		</linearGradient>
		<linearGradient x1="139.850098" y1="24.499260" x2="172.956573" y2="24.499260" id="paint_linear_2_21991_0" gradientUnits="userSpaceOnUse">
			<stop stop-color="#FF8F01"/>
			<stop offset="1.000000" stop-color="#ED1C24"/>
		</linearGradient>
		<linearGradient x1="89.490150" y1="19.302437" x2="17.144829" y2="37.212883" id="paint_linear_2_21992_0" gradientUnits="userSpaceOnUse">
			<stop stop-color="#FF8F00"/>
			<stop offset="1.000000" stop-color="#FFC700"/>
		</linearGradient>
	</defs>
	<path d="M168.07 17.86C168.07 24.85 162.4 30.52 155.41 30.52C148.42 30.52 142.75 24.85 142.75 17.86C142.75 10.87 148.42 5.2 155.41 5.2C162.4 5.2 168.07 10.87 168.07 17.86Z" fill="url(#paint_linear_2_21989_0)" fill-opacity="1.000000" fill-rule="evenodd"/>
	<path d="M108.41 2.31L99.05 2.31L99.05 33.4L105.4 33.4L105.4 21.03L107.2 21.03C111.38 21.03 114.17 20.36 115.64 19.07C117.1 17.77 117.81 15.27 117.81 11.51C117.81 8.21 117.06 5.87 115.64 4.45C114.22 3.03 111.79 2.31 108.41 2.31ZM136.15 4.15C134.73 2.94 132.35 2.31 129.01 2.31L119.61 2.31L119.61 33.44L125.96 33.44L125.96 20.74L127.79 20.74C129.34 20.74 130.39 21.07 131.01 21.7C131.64 22.33 131.93 23.46 131.89 25L131.89 28.76C131.89 30.14 131.93 31.14 131.97 31.85C132.01 32.56 132.1 33.06 132.18 33.4L138.53 33.4C138.52 33.36 138.52 33.33 138.51 33.29C138.42 32.93 138.32 32.46 138.28 31.81C138.24 31.1 138.2 30.06 138.16 28.72C138.16 27.42 138.16 26.17 138.2 24.96C138.32 22.83 137.91 21.2 137.03 20.07C136.15 18.94 134.81 18.36 133.1 18.36L132.77 18.36C134.27 18.02 135.4 17.61 136.11 17.02C137.57 15.89 138.28 13.68 138.28 10.38C138.28 7.45 137.57 5.41 136.15 4.15ZM107.16 16.35L105.4 16.35L105.4 6.99L107.2 6.99C108.87 6.99 110 7.33 110.58 7.95C111.17 8.58 111.46 9.79 111.46 11.59C111.46 13.47 111.17 14.77 110.58 15.39C110 16.02 108.87 16.35 107.16 16.35ZM127.75 15.98L126 15.98L126 7.04L127.75 7.04C129.34 7.04 130.43 7.33 131.01 7.95C131.6 8.54 131.89 9.71 131.89 11.42C131.89 13.22 131.6 14.43 131.05 15.06C130.51 15.68 129.38 15.98 127.75 15.98Z" fill="url(#paint_linear_2_21990_0)" fill-opacity="1.000000" fill-rule="evenodd"/>
	<path d="M155.41 2.27C146.81 2.27 139.83 9.25 139.83 17.86C139.83 26.46 146.81 33.44 155.41 33.44C164.02 33.44 171 26.46 171 17.86C171 9.25 164.02 2.27 155.41 2.27ZM141.5 17.86C141.5 10.17 147.73 3.94 155.41 3.94C163.1 3.94 169.32 10.17 169.32 17.86C169.32 25.54 163.1 31.77 155.41 31.77C147.73 31.77 141.5 25.54 141.5 17.86Z" fill="url(#paint_linear_2_21991_0)" fill-opacity="1.000000" fill-rule="evenodd"/>
	<path d="M57.24 3.68C57.24 3.39 57.48 3.37 57.83 3.33C58.6 3.25 59.92 3.11 60.4 0C60.92 3.05 62.25 3.22 63.03 3.32C63.39 3.36 63.64 3.39 63.64 3.68C63.64 4.54 63.33 5.28 62.71 5.9C62.09 6.52 61.32 6.84 60.4 6.84C59.54 6.84 58.79 6.52 58.17 5.9C57.55 5.28 57.24 4.54 57.24 3.68ZM76.63 4.04C76.63 3.03 76.99 2.18 77.7 1.5C78.41 0.79 79.25 0.43 80.24 0.43C81.22 0.43 82.04 0.79 82.72 1.5C83.43 2.18 83.79 3.03 83.79 4.04C83.79 5.04 83.44 5.89 82.72 6.57C82.04 7.25 81.21 7.59 80.24 7.59C79.26 7.59 78.42 7.25 77.7 6.57C76.99 5.89 76.63 5.04 76.63 4.04ZM15.99 33.46L15.55 33.46C14.78 33.46 14.04 33.39 13.33 33.24C12.62 33.09 11.98 32.82 11.42 32.44C10.88 32.05 10.43 31.52 10.08 30.84C9.75 30.16 9.59 29.27 9.59 28.18L9.59 1.19L10.3 1.19C11.01 1.19 11.71 1.28 12.39 1.46C13.07 1.61 13.68 1.89 14.21 2.3C14.74 2.69 15.17 3.22 15.5 3.9C15.82 4.59 15.99 5.46 15.99 6.53L15.99 33.46ZM27.78 1.19L28.26 1.19C29.8 1.19 31.09 1.61 32.13 2.44C33.2 3.27 33.73 4.59 33.73 6.4L33.73 33.47L33.47 33.47C32.79 33.47 32.1 33.38 31.42 33.2C30.77 33.03 30.16 32.75 29.6 32.36C29.07 31.94 28.62 31.43 28.27 30.81C27.94 30.15 27.78 29.35 27.78 28.41L27.78 1.19ZM0 5.59C0 5.08 0.08 4.58 0.26 4.08C0.44 3.57 0.72 3.11 1.11 2.7C1.49 2.28 1.96 1.96 2.53 1.72C3.1 1.45 3.76 1.32 4.53 1.32C5.31 1.32 6.01 1.47 6.58 1.76C7.14 2.02 7.59 2.36 7.91 2.78C8.27 3.17 8.52 3.6 8.67 4.07C8.85 4.51 8.93 4.91 8.93 5.27C8.93 5.51 8.92 5.72 8.89 5.94C8.89 6.11 8.84 6.32 8.75 6.56C8.34 6.2 7.87 6.02 7.33 6.02C6.88 6.02 6.51 6.17 6.22 6.47C5.92 6.73 5.77 7.15 5.77 7.71L5.77 9.89C5.53 9.96 5.24 9.98 4.89 9.98C4.47 9.98 3.98 9.93 3.42 9.85C2.86 9.73 2.33 9.51 1.82 9.18C1.32 8.85 0.89 8.41 0.53 7.84Q0 6.99 0 5.57L0 5.59ZM25.64 5.59C25.64 6.53 25.47 7.29 25.11 7.86C24.76 8.42 24.33 8.87 23.82 9.19C23.32 9.52 22.79 9.74 22.22 9.86C21.66 9.95 21.17 10 20.76 10C20.4 10 20.1 9.97 19.87 9.91L19.87 7.86C19.87 7.24 19.72 6.78 19.43 6.49C19.14 6.19 18.76 6.04 18.32 6.04C17.75 6.04 17.28 6.22 16.89 6.58C16.81 6.34 16.74 6.13 16.72 5.96L16.72 5.29C16.72 4.93 16.79 4.53 16.94 4.09C17.12 3.61 17.37 3.18 17.7 2.8C18.05 2.39 18.5 2.04 19.03 1.78C19.6 1.49 20.26 1.34 21.04 1.34C21.81 1.34 22.52 1.47 23.08 1.74C23.67 2 24.15 2.34 24.51 2.76C24.89 3.15 25.17 3.6 25.35 4.14C25.55 4.64 25.66 5.13 25.66 5.6L25.64 5.59ZM60.26 8.4C61.13 8.4 61.8 8.1 62.29 7.65L62.3 7.64C64.07 11.72 67 13.47 69.89 13.47C72.33 13.47 73.56 11.67 73.56 11.67C73.56 11.67 73.86 12.49 73.86 13.44C73.86 14.73 73.3 16.26 70.63 16.26L50.18 16.26C47.82 16.26 47.06 14.91 47.06 13.68C47.06 12.75 47.48 11.89 47.99 11.7C48.09 12.47 48.94 13.47 50.83 13.47L50.94 13.47C53.95 13.41 56.38 11.72 58.39 7.8C58.87 8.17 59.49 8.4 60.26 8.4ZM77.31 10.88L77.79 10.88C79.33 10.88 80.62 11.3 81.66 12.13C82.73 12.96 83.26 14.28 83.26 16.09L83.26 33.47L83 33.47C82.31 33.47 81.63 33.38 80.95 33.21C80.3 33.03 79.69 32.75 79.13 32.36C78.6 31.95 78.16 31.43 77.8 30.81C77.47 30.15 77.31 29.36 77.31 28.41L77.31 10.88ZM37.9 17.82C37.9 17.46 37.88 17.12 37.81 16.8C37.79 16.47 37.7 16.19 37.55 15.95C37.43 15.69 37.23 15.47 36.97 15.33C36.73 15.15 36.39 15.07 35.95 15.07C35.71 15.07 35.46 15.11 35.19 15.2C34.95 15.26 34.73 15.38 34.52 15.56C34.41 15.32 34.33 15.1 34.3 14.89C34.27 14.65 34.25 14.41 34.25 14.18C34.25 13.23 34.65 12.45 35.45 11.82C36.25 11.2 37.21 10.89 38.34 10.89C40.12 10.89 41.48 11.35 42.43 12.27C43.37 13.15 43.85 14.45 43.85 16.14L43.85 33.47C43.17 33.47 42.47 33.4 41.76 33.25C41.08 33.07 40.44 32.79 39.84 32.4C39.28 31.99 38.81 31.45 38.42 30.8C38.07 30.12 37.89 29.26 37.89 28.22L37.89 17.83L37.9 17.82ZM70.75 26.62C70.75 26.97 70.78 27.31 70.84 27.64C70.87 27.97 70.96 28.25 71.11 28.49C71.22 28.75 71.42 28.96 71.68 29.11C71.92 29.28 72.26 29.37 72.71 29.37C72.94 29.37 73.2 29.32 73.46 29.24C73.7 29.17 73.92 29.06 74.13 28.88C74.25 29.12 74.32 29.34 74.36 29.55C74.38 29.79 74.4 30.03 74.4 30.26C74.4 31.2 74 31.99 73.2 32.61C72.41 33.23 71.44 33.55 70.31 33.55C68.61 33.55 67.28 33.13 66.34 32.28C65.04 33.03 63.54 33.46 61.93 33.46L55.17 33.46C52.4 33.46 50.15 31.21 50.15 28.44L50.15 18.68L70.74 18.68L70.74 23.06C70.75 23.24 70.76 23.43 70.76 23.63L70.76 26.62L70.75 26.62ZM64.8 24.13L55.6 24.13L55.6 28.01L61.93 28.01C63.15 28.01 64.21 27.36 64.8 26.39L64.8 24.13ZM85.9 29.72C85.9 28.71 86.26 27.86 86.97 27.18C87.68 26.47 88.53 26.11 89.51 26.11C90.49 26.11 91.31 26.47 92 27.18C92.7 27.86 93.07 28.71 93.07 29.72C93.07 30.72 92.71 31.57 92 32.25C91.31 32.93 90.48 33.27 89.51 33.27C88.53 33.27 87.69 32.93 86.97 32.25C86.27 31.57 85.9 30.72 85.9 29.72Z" fill="url(#paint_linear_2_21992_0)" fill-opacity="1.000000" fill-rule="evenodd"/>
</svg>
