<svg width="28.000000" height="23.000000" viewBox="0 0 28 23" fill="none" xmlns="http://www.w3.org/2000/svg" xmlns:xlink="http://www.w3.org/1999/xlink">
	<desc>
			Created with Pixso.
	</desc>
	<defs/>
	<path id="Union" d="M12.11 1.19C10.9 0.43 9.47 0 7.94 0C3.55 0 0 3.6 0 8.04C0 15.77 14 23 14 23C14 23 28 15.77 28 8.04C28 3.6 24.44 0 20.05 0C18.52 0 17.09 0.43 15.88 1.19C15.17 1.63 14.53 2.19 14 2.83C13.46 2.19 12.82 1.63 12.11 1.19ZM14 20.15Q16.71 18.62 19.44 16.46Q25.5 11.66 25.5 8.04Q25.5 6.85 25.07 5.84Q24.67 4.9 23.89 4.11Q23.07 3.28 22.07 2.87Q21.14 2.5 20.05 2.5Q18.84 2.5 17.83 2.95Q16.75 3.43 15.91 4.44L14 6.72L12.08 4.44Q11.24 3.43 10.16 2.95Q9.15 2.5 7.94 2.5Q6.85 2.5 5.92 2.87Q4.92 3.28 4.1 4.11Q3.32 4.9 2.92 5.84Q2.5 6.85 2.5 8.04Q2.5 11.66 8.55 16.46Q11.28 18.62 14 20.15Z" fill="#C9C9C9" fill-opacity="1.000000" fill-rule="evenodd"/>
</svg>
