<svg width="45.799561" height="40.636108" viewBox="0 0 45.7996 40.6361" fill="none" xmlns="http://www.w3.org/2000/svg" xmlns:xlink="http://www.w3.org/1999/xlink">
	<desc>
			Created with Pixso.
	</desc>
	<defs/>
	<path id="Vector" d="M24.62 38.08C25.27 38.43 25.87 38.77 26.48 39.1C26.73 39.24 26.93 39.42 26.97 39.71C27.01 40.03 26.93 40.3 26.67 40.48C26.38 40.7 26.06 40.66 25.77 40.5C24.96 40.07 24.17 39.65 23.38 39.18C23.03 38.96 22.75 38.98 22.42 39.18C21.63 39.63 20.84 40.07 20.04 40.5C19.72 40.68 19.39 40.68 19.09 40.44C18.84 40.24 18.78 39.95 18.84 39.65C18.89 39.36 19.11 39.2 19.37 39.06C19.96 38.75 20.53 38.41 21.2 38.04C20.08 37.55 19.05 37.07 18.03 36.6C17.42 36.33 16.83 36.07 16.24 35.77C15.96 35.64 15.78 35.64 15.53 35.83C14.88 36.35 14.19 36.8 13.48 37.23C12.16 38.04 10.78 38.28 9.29 37.84C8.64 37.66 7.99 37.49 7.36 37.25C6.63 36.98 6.47 36.4 6.96 35.81C7.63 35.03 8.36 34.3 9.19 33.67C9.72 33.25 10.27 32.92 10.94 32.78C11.29 32.72 11.21 32.6 11.02 32.41C10.25 31.68 9.52 30.91 8.89 30.04C8.75 29.85 8.6 29.79 8.34 29.85C7.53 30 6.71 30.14 5.88 30.22C4.54 30.36 3.28 30.12 2.2 29.26C1.53 28.72 0.88 28.15 0.29 27.52C-0.17 27.03 -0.09 26.44 0.5 26.17C1.74 25.59 3.02 25.1 4.4 25C4.93 24.96 5.46 25.08 5.98 25.3C6.08 25.34 6.19 25.46 6.31 25.34C6.41 25.24 6.31 25.14 6.29 25.04C5.98 23.94 5.7 22.82 5.6 21.68C5.58 21.38 5.45 21.18 5.17 21.03C4.46 20.63 3.79 20.18 3.12 19.71C1.76 18.76 1.01 17.46 0.86 15.83C0.8 15.22 0.7 14.61 0.68 14C0.64 13.25 1.15 12.87 1.84 13.11C3.36 13.64 4.89 14.17 6.11 15.41C6.35 14.63 6.61 13.9 6.9 13.17C6.98 12.97 6.84 12.81 6.74 12.66C6.15 11.61 5.54 10.59 5.27 9.41C5.07 8.6 5.13 7.79 5.5 7.02C6.08 5.82 6.9 4.8 7.81 3.81C8.24 3.34 8.87 3.48 9.17 4.09C9.76 5.27 10.31 6.47 10.45 7.89C11.04 7.36 11.65 6.91 12.14 6.37C12.4 6.1 12.28 5.65 12.38 5.27C12.49 4.78 12.57 4.29 12.69 3.8C13.09 2.12 14.21 1.14 15.8 0.64C16.57 0.41 17.36 0.17 18.17 0.03C19.05 -0.14 19.49 0.29 19.31 1.2C19.15 2 18.95 2.77 18.7 3.56C18.36 4.58 17.73 5.39 16.83 5.98C16.02 6.51 15.15 6.99 14.25 7.28C13.12 7.65 12.28 8.38 11.49 9.21C9.05 11.75 7.61 14.8 7.24 18.29C6.57 24.63 9.84 30.83 15.74 33.73C18.01 34.85 20.33 35.87 22.64 36.94C22.83 37.03 23.01 37.05 23.21 36.96C25.57 35.77 28.05 34.85 30.37 33.61C35.08 31.09 37.9 27.17 38.57 21.87C39.28 16.28 37.31 11.63 33.03 7.97C32.84 7.81 32.62 7.69 32.4 7.62C31.22 7.16 30.08 6.65 29.02 5.96C28.13 5.39 27.54 4.6 27.18 3.62C26.89 2.79 26.67 1.94 26.52 1.08C26.38 0.37 26.79 -0.1 27.5 0.03C28.78 0.25 30.06 0.57 31.22 1.18C32.11 1.65 32.68 2.4 32.99 3.32C33.29 4.15 33.45 5.02 33.55 5.88C33.58 6.24 33.7 6.51 34 6.73C34.47 7.08 34.9 7.52 35.38 7.93C35.48 6.57 36.03 5.41 36.6 4.23C36.99 3.42 37.6 3.34 38.17 4.01C38.9 4.84 39.59 5.71 40.12 6.67C40.71 7.73 40.77 8.82 40.38 9.96C40.04 10.92 39.57 11.81 39.04 12.68C38.88 12.93 38.86 13.17 38.98 13.44C39.24 14.07 39.45 14.7 39.69 15.39C40.79 14.27 42.21 13.72 43.63 13.21C43.79 13.15 43.94 13.09 44.12 13.07C44.59 12.97 45.08 13.23 45.08 13.68C45.03 15.67 45.01 17.68 43.33 19.15C42.56 19.82 41.74 20.4 40.83 20.89C40.36 21.14 40.16 21.48 40.12 22.01C40.04 23.05 39.77 24.06 39.47 25.06C39.45 25.16 39.37 25.26 39.45 25.36C39.55 25.48 39.65 25.38 39.75 25.34C40.63 24.94 41.54 24.96 42.45 25.2C43.37 25.42 44.28 25.75 45.14 26.15C45.85 26.48 46.01 27.05 45.48 27.6C44.79 28.33 44.04 29 43.21 29.55C42.17 30.26 41.01 30.38 39.81 30.24C39 30.16 38.19 30.02 37.4 29.87C37.17 29.83 37.03 29.89 36.89 30.06C36.28 30.91 35.55 31.68 34.81 32.39C34.73 32.47 34.57 32.53 34.61 32.66C34.65 32.78 34.79 32.76 34.88 32.78C35.49 32.92 36.03 33.21 36.52 33.59C37.39 34.24 38.13 35.01 38.84 35.81C39.31 36.37 39.16 36.96 38.47 37.19C37.37 37.61 36.26 37.94 35.08 38.02C34.41 38.06 33.78 37.9 33.17 37.63C32.09 37.15 31.14 36.46 30.22 35.75C30.02 35.62 29.86 35.58 29.65 35.68C28.07 36.4 26.5 37.11 24.92 37.82C24.84 37.86 24.76 37.9 24.62 37.98L24.62 38.08ZM5.15 28.69C5.84 28.69 6.43 28.63 7.02 28.53C7.24 28.49 7.28 28.43 7.14 28.23C6.04 26.72 4.26 26.28 2.53 27.11C2.31 27.21 2.29 27.33 2.47 27.46C3.28 28.11 4.07 28.84 5.15 28.69ZM40.46 28.69C41.62 28.69 42.43 28.35 43.29 27.48C43.53 27.25 43.43 27.17 43.19 27.09C42.7 26.91 42.19 26.78 41.68 26.72C41.07 26.64 40.5 26.68 39.96 27.05C39.49 27.39 39.06 27.78 38.67 28.21C38.49 28.41 38.55 28.49 38.78 28.53C39.33 28.61 39.91 28.71 40.48 28.69L40.46 28.69ZM11.47 34.34C10.57 34.4 9.84 35.22 9.03 35.95C8.91 36.05 9.01 36.15 9.13 36.19C9.82 36.35 10.51 36.6 11.21 36.46C12.16 36.29 12.95 35.72 13.74 35.18C13.95 35.03 13.89 34.91 13.68 34.83C13.07 34.59 12.46 34.36 11.47 34.34ZM34.98 36.5C35.42 36.42 36.01 36.33 36.56 36.21C36.83 36.15 36.81 35.99 36.64 35.83C36.14 35.38 35.61 34.95 35.04 34.59C34.69 34.38 34.33 34.3 33.94 34.36C33.33 34.44 32.74 34.59 32.17 34.79C32.07 34.83 31.93 34.85 31.91 34.97C31.89 35.12 32.03 35.16 32.13 35.24C32.72 35.64 33.31 35.99 33.96 36.29C34.23 36.4 34.53 36.5 34.98 36.52L34.98 36.5ZM40.34 18.98C40.32 19.23 40.44 19.27 40.63 19.15C42.09 18.29 43.29 17.24 43.39 15.37C43.39 15.1 43.33 15.06 43.08 15.16C42.43 15.43 41.82 15.77 41.24 16.2C40.97 16.42 40.77 16.67 40.67 17.01C40.48 17.66 40.42 18.33 40.34 19L40.34 18.98ZM13.91 5.67C15.86 5.15 17.38 3.52 17.42 1.92C15.17 2.18 14.33 3.09 13.91 5.67ZM5.43 19.04C5.41 18.74 5.41 18.45 5.35 18.17C5.21 17.54 5.23 16.85 4.72 16.38C4.13 15.83 3.42 15.47 2.67 15.16C2.43 15.06 2.37 15.12 2.39 15.37C2.47 17.26 3.69 18.33 5.17 19.19C5.35 19.31 5.46 19.25 5.43 19.04ZM8.85 8.09C8.75 7.42 8.58 6.77 8.32 6.14C8.22 5.88 8.1 6 7.99 6.14C6.72 7.48 6.51 8.6 7.26 10.29C7.37 10.55 7.43 10.96 7.65 10.98C7.93 10.98 7.99 10.55 8.1 10.31C8.46 9.6 8.75 8.9 8.87 8.11L8.85 8.09ZM36.97 8.17C37.09 9.11 37.54 10.02 38 10.9C38.13 11.18 38.23 10.96 38.29 10.83C38.53 10.35 38.74 9.84 38.88 9.33C38.98 8.95 39.1 8.6 38.98 8.21C38.72 7.44 38.29 6.77 37.8 6.14C37.68 5.98 37.56 5.92 37.46 6.14C37.21 6.77 36.99 7.4 36.95 8.15L36.97 8.17ZM31.89 5.74C31.77 4.88 31.58 4.15 31.24 3.46C31.14 3.24 31.02 3.05 30.83 2.93C30.18 2.48 29.45 2.2 28.7 1.98C28.5 1.92 28.33 1.98 28.39 2.22C28.6 2.93 28.74 3.68 29.29 4.21C30.02 4.9 30.91 5.31 31.87 5.74L31.89 5.74Z" fill="#FE8505" fill-opacity="1.000000" fill-rule="nonzero"/>
	<path id="Vector" d="M22.89 7.4C29.75 7.28 35.5 13.11 35.48 19.98C35.48 26.83 29.69 32.66 22.66 32.55C15.92 32.43 10.25 26.76 10.29 19.84C10.35 13.05 16.06 7.28 22.87 7.4L22.89 7.4ZM19.58 19.19C20.29 19.19 21 19.19 21.71 19.19C21.99 19.19 22.14 19.14 22.14 18.82C22.14 17.62 22.14 16.42 22.14 15.24C22.14 14.96 22.07 14.84 21.77 14.84C20.55 14.84 19.31 14.84 18.09 14.84C17.87 14.84 17.73 14.9 17.69 15.14C17.38 16.34 17.18 17.56 17.12 18.8C17.12 19.12 17.24 19.19 17.54 19.19C18.23 19.19 18.91 19.19 19.6 19.19L19.58 19.19ZM26.18 20.73C25.47 20.73 24.76 20.73 24.05 20.73C23.8 20.73 23.64 20.77 23.64 21.08C23.64 22.31 23.64 23.55 23.64 24.77C23.64 25 23.74 25.1 23.98 25.1C25.22 25.1 26.46 25.1 27.7 25.1C27.91 25.1 28.03 25.02 28.09 24.81C28.39 23.63 28.6 22.4 28.64 21.18C28.64 20.87 28.54 20.75 28.23 20.75C27.54 20.75 26.85 20.75 26.16 20.75L26.18 20.73ZM26.1 19.19C26.83 19.19 27.54 19.19 28.27 19.19C28.56 19.19 28.68 19.08 28.66 18.78C28.62 17.54 28.41 16.34 28.11 15.16C28.05 14.92 27.93 14.82 27.7 14.84C26.48 14.84 25.24 14.84 24.01 14.84C23.76 14.84 23.66 14.94 23.66 15.2C23.66 16.42 23.66 17.62 23.66 18.84C23.66 19.12 23.78 19.21 24.05 19.21C24.74 19.21 25.43 19.21 26.12 19.21L26.1 19.19ZM19.62 20.73C18.93 20.73 18.25 20.73 17.56 20.73C17.22 20.73 17.08 20.83 17.1 21.18C17.16 22.4 17.36 23.59 17.65 24.77C17.71 25.02 17.87 25.1 18.11 25.1C19.31 25.1 20.51 25.1 21.69 25.1C22.03 25.1 22.1 24.98 22.1 24.67C22.1 23.51 22.1 22.35 22.1 21.16C22.1 20.85 22.01 20.73 21.67 20.73C20.98 20.73 20.29 20.73 19.6 20.73L19.62 20.73ZM13.72 19.19C14.17 19.19 14.64 19.19 15.09 19.19C15.35 19.19 15.47 19.12 15.49 18.82C15.53 17.62 15.71 16.42 15.98 15.24C16.06 14.9 15.96 14.82 15.65 14.82C14.92 14.82 14.21 14.82 13.48 14.82C13.28 14.82 13.13 14.86 13.03 15.06C12.42 16.24 12.08 17.48 11.94 18.78C11.9 19.08 12.02 19.19 12.34 19.19C12.79 19.19 13.26 19.19 13.72 19.19ZM32.03 19.19C32.48 19.19 32.92 19.17 33.37 19.19C33.78 19.23 33.88 19.02 33.82 18.66C33.64 17.44 33.35 16.26 32.8 15.16C32.68 14.92 32.52 14.82 32.27 14.82C31.56 14.82 30.85 14.82 30.16 14.82C29.82 14.82 29.73 14.9 29.8 15.26C30.08 16.42 30.26 17.6 30.3 18.8C30.3 19.12 30.43 19.19 30.71 19.19C31.16 19.19 31.6 19.19 32.05 19.19L32.03 19.19ZM13.72 20.73C13.26 20.73 12.83 20.73 12.38 20.73C12.02 20.73 11.9 20.87 11.96 21.2C12.12 22.46 12.46 23.68 13.05 24.85C13.13 25 13.24 25.1 13.44 25.1C14.21 25.1 14.98 25.1 15.74 25.1C16.02 25.1 16.08 24.98 16.02 24.73C15.74 23.53 15.57 22.33 15.51 21.1C15.51 20.85 15.41 20.75 15.15 20.75C14.68 20.75 14.21 20.75 13.74 20.75L13.72 20.73ZM32.11 20.73C31.64 20.73 31.16 20.73 30.69 20.73C30.41 20.73 30.32 20.81 30.3 21.1C30.26 22.31 30.08 23.51 29.8 24.69C29.73 25.02 29.84 25.1 30.14 25.1C30.87 25.1 31.58 25.1 32.31 25.1C32.48 25.1 32.64 25.1 32.74 24.91C33.37 23.7 33.72 22.44 33.86 21.1C33.88 20.85 33.78 20.75 33.51 20.75C33.05 20.75 32.58 20.75 32.13 20.75L32.11 20.73ZM23.66 11.18C23.66 11.75 23.66 12.32 23.66 12.87C23.66 13.17 23.76 13.29 24.05 13.29C25.06 13.29 26.08 13.29 27.09 13.29C27.46 13.29 27.44 13.13 27.32 12.87C26.99 12.16 26.61 11.48 26.12 10.86C25.57 10.16 24.92 9.55 24.07 9.19C23.78 9.07 23.64 9.13 23.66 9.47C23.66 10.04 23.66 10.61 23.66 11.16L23.66 11.18ZM22.12 11.22C22.12 10.71 22.12 10.18 22.12 9.66C22.12 9.07 22.07 9.03 21.53 9.29C19.98 10.1 19.09 11.48 18.4 13.03C18.28 13.31 18.48 13.31 18.66 13.31C19.68 13.31 20.71 13.31 21.75 13.31C22.07 13.31 22.14 13.17 22.12 12.89C22.12 12.34 22.12 11.79 22.12 11.24L22.12 11.22ZM22.12 28.75C22.12 28.21 22.12 27.66 22.12 27.13C22.12 26.76 22.05 26.6 21.63 26.62C20.67 26.64 19.7 26.62 18.74 26.62C18.4 26.62 18.28 26.68 18.44 27.03C18.84 27.88 19.29 28.67 19.9 29.36C20.39 29.91 20.94 30.38 21.63 30.69C21.95 30.83 22.12 30.81 22.1 30.4C22.09 29.85 22.1 29.3 22.1 28.75L22.12 28.75ZM23.66 28.73C23.66 29.3 23.66 29.87 23.66 30.42C23.66 30.79 23.8 30.85 24.09 30.71C24.25 30.64 24.41 30.58 24.55 30.48C25.91 29.63 26.73 28.35 27.36 26.93C27.5 26.66 27.32 26.64 27.11 26.64C26.1 26.64 25.08 26.64 24.07 26.64C23.74 26.64 23.64 26.76 23.66 27.07C23.66 27.62 23.66 28.17 23.66 28.73ZM27.6 10.1C28.23 11.04 28.72 12.05 29.13 13.07C29.19 13.25 29.33 13.29 29.49 13.29C30.08 13.29 30.69 13.29 31.28 13.29C31.36 13.29 31.46 13.29 31.5 13.23C31.58 13.13 31.46 13.07 31.42 12.99C30.38 11.73 29.13 10.75 27.62 10.08L27.6 10.1ZM14.15 13.31C14.68 13.31 15.07 13.27 15.47 13.31C16.28 13.42 16.73 13.17 16.97 12.36C17.2 11.55 17.73 10.85 18.17 10.1C16.57 10.79 15.29 11.83 14.15 13.31ZM18.17 29.85C17.56 28.9 17.06 27.9 16.65 26.87C16.61 26.78 16.55 26.68 16.43 26.68C15.71 26.68 15 26.68 14.17 26.68C15.31 28.11 16.59 29.18 18.19 29.87L18.17 29.85ZM31.64 26.66C30.89 26.66 30.26 26.66 29.65 26.66C29.33 26.66 29.17 26.76 29.08 27.05C28.72 27.98 28.27 28.86 27.68 29.69C27.64 29.75 27.58 29.81 27.68 29.91C29.23 29.18 30.51 28.11 31.66 26.68L31.64 26.66Z" fill="#FE8505" fill-opacity="1.000000" fill-rule="nonzero"/>
</svg>
