<svg width="36.994995" height="36.947327" viewBox="0 0 36.995 36.9473" fill="none" xmlns="http://www.w3.org/2000/svg" xmlns:xlink="http://www.w3.org/1999/xlink">
	<desc>
			Created with Pixso.
	</desc>
	<defs/>
	<path id="Vector" d="M36.89 16.68C36.58 13.47 35.52 10.55 33.71 8.03C30.4 3.32 25.87 0.66 20.22 0.09C17.79 -0.16 15.34 0.09 12.94 0.85C10.53 1.6 8.32 2.85 6.36 4.54C6.3 4.6 6.26 4.62 6.26 4.62C6.26 4.62 6.22 4.6 6.16 4.52C5.83 4.15 5.45 3.79 5 3.36C4.71 3.09 4.35 2.97 4.04 3.07C3.73 3.17 3.51 3.42 3.41 3.79C2.79 6.28 2.16 8.79 1.53 11.28C1.45 11.61 1.53 11.94 1.75 12.16C1.98 12.37 2.31 12.47 2.65 12.37C5.12 11.77 7.57 11.16 10.04 10.53C10.49 10.42 10.79 10.18 10.87 9.87C10.96 9.53 10.83 9.18 10.51 8.85C10.12 8.44 9.71 8.03 9.3 7.63L9.26 7.59C9.26 7.59 9.26 7.59 9.3 7.57C10.73 6.4 12.32 5.5 14.06 4.93C15.61 4.4 17.18 4.26 18.5 4.2C19.06 4.17 19.4 3.83 19.4 3.3C19.4 2.77 19.02 2.46 18.46 2.46C17.77 2.46 17.04 2.5 16.26 2.6C12.96 3.07 10.02 4.48 7.55 6.77C6.96 7.32 6.94 7.77 7.47 8.38C7.71 8.63 7.96 8.89 8.22 9.14L8.26 9.18C7.73 9.3 7.2 9.44 6.67 9.57L3.67 10.32L4.81 5.71L4.88 5.79C5.08 5.99 5.28 6.18 5.47 6.38C5.92 6.81 6.41 6.85 6.9 6.5C7.06 6.38 7.22 6.24 7.37 6.11C7.47 6.03 7.57 5.93 7.67 5.85C11.81 2.42 16.46 1.17 21.54 2.13C27.67 3.3 31.95 6.95 34.26 12.94C35.01 14.9 35.32 17.1 35.19 19.45C35.17 19.82 35.24 20.09 35.42 20.29C35.58 20.45 35.79 20.54 36.05 20.56L36.09 20.56C36.32 20.56 36.54 20.49 36.7 20.33C36.89 20.13 36.99 19.86 36.99 19.47C36.99 19.25 36.99 19.04 36.99 18.82C36.99 18.12 36.99 17.41 36.93 16.68L36.89 16.68Z" fill="#FE8505" fill-opacity="1.000000" fill-rule="nonzero"/>
	<path id="Vector" d="M34.17 24.58C31.75 25.19 29.34 25.78 26.93 26.38C26.5 26.48 26.2 26.74 26.12 27.05C26.03 27.38 26.16 27.73 26.48 28.05C26.89 28.46 27.3 28.87 27.71 29.28L27.73 29.28C27.73 29.28 27.73 29.32 27.71 29.32C26.16 30.61 24.4 31.57 22.46 32.14C21.24 32.51 19.99 32.63 18.48 32.73C17.91 32.77 17.57 33.12 17.59 33.65C17.61 34.14 17.97 34.45 18.52 34.47C19.22 34.47 19.95 34.43 20.75 34.34C24.03 33.87 26.93 32.48 29.4 30.22C30.03 29.63 30.05 29.16 29.48 28.54C29.28 28.32 29.07 28.11 28.85 27.89L28.73 27.77C28.91 27.73 29.07 27.7 29.24 27.66L33.34 26.64L32.95 28.22C32.69 29.22 32.44 30.24 32.2 31.24C32.07 31.08 31.91 30.95 31.77 30.81L31.64 30.67C31.07 30.1 30.56 30.09 29.93 30.61C29.79 30.73 29.67 30.83 29.54 30.95C29.36 31.1 29.18 31.28 28.99 31.42C25.1 34.49 20.65 35.67 15.79 34.9C11.79 34.28 8.38 32.34 5.67 29.13C3.67 26.75 2.43 23.99 1.98 20.9C1.82 19.78 1.77 18.62 1.84 17.41C1.84 17.12 1.79 16.84 1.61 16.66C1.45 16.49 1.26 16.41 1 16.39C0.75 16.39 0.51 16.45 0.33 16.61C0.14 16.78 0.04 17.02 0.02 17.33C-0.1 19.84 0.2 22.07 0.88 24.17C2.33 28.5 5.02 31.89 8.87 34.24C11.81 36.04 14.98 36.94 18.36 36.94C19.46 36.94 20.57 36.84 21.69 36.65C25.01 36.08 28.01 34.65 30.62 32.38C30.67 32.34 30.69 32.32 30.69 32.3C30.69 32.3 30.73 32.32 30.79 32.38C31.05 32.65 31.32 32.93 31.6 33.2L31.97 33.57C32.26 33.87 32.66 33.96 33.03 33.81C33.44 33.65 33.54 33.26 33.6 33.04L34.36 29.97C34.72 28.58 35.05 27.21 35.4 25.81C35.54 25.23 35.38 24.91 35.22 24.76C35.07 24.6 34.73 24.42 34.15 24.58L34.17 24.58Z" fill="#FE8505" fill-opacity="1.000000" fill-rule="nonzero"/>
	<path id="Vector" d="M10.43 21.9C10.67 22.37 11.14 22.37 11.4 22.37C12.75 22.37 14.08 22.37 15.44 22.37L16.34 22.37C16.34 22.37 16.46 22.37 16.51 22.37C16.51 22.41 16.49 22.46 16.48 22.52L16.04 24.6C15.83 25.64 15.61 26.68 15.4 27.73C15.26 28.44 15.1 29.15 14.98 29.85C14.91 30.28 15.12 30.63 15.53 30.79C15.65 30.83 15.77 30.85 15.89 30.85C16.16 30.85 16.42 30.71 16.59 30.48C16.71 30.34 16.81 30.18 16.91 30.03L26.4 16.12C26.46 16.02 26.54 15.92 26.58 15.8C26.77 15.37 26.63 14.88 26.26 14.65C25.85 14.41 25.46 14.47 25.14 14.8C25.05 14.92 24.95 15.04 24.87 15.16L17.67 25.7L17.73 25.4C17.97 24.27 18.2 23.13 18.46 22.01C18.57 21.52 18.51 21.17 18.32 20.92C18.12 20.68 17.79 20.56 17.28 20.58C16.22 20.62 15.12 20.6 14.06 20.58C13.69 20.58 13.32 20.58 12.93 20.58C13.28 20.05 13.65 19.53 14.02 19L19.38 11.16L18.59 14.88L18.55 15.12C18.46 15.72 18.71 16.2 19.22 16.27C19.75 16.37 20.16 16.08 20.3 15.47C20.79 13.2 21.26 10.91 21.73 8.63C21.77 8.48 21.79 8.34 21.83 8.18C21.93 7.77 22.03 7.36 22.05 6.93C22.05 6.56 21.87 6.26 21.52 6.12C21.16 5.99 20.81 6.05 20.55 6.3C20.46 6.4 20.38 6.5 20.32 6.6L10.59 20.82C10.49 20.96 10.2 21.39 10.45 21.88L10.43 21.9Z" fill="#FE8505" fill-opacity="1.000000" fill-rule="nonzero"/>
	<path id="Vector" d="M20.91 4.19C21.14 4.19 21.36 4.11 21.52 3.95C21.67 3.79 21.77 3.58 21.77 3.32C21.77 3.07 21.69 2.85 21.54 2.68C21.38 2.52 21.16 2.42 20.91 2.42C20.42 2.42 20.04 2.77 20.03 3.24C20.03 3.5 20.1 3.73 20.26 3.89C20.42 4.05 20.63 4.15 20.87 4.17L20.91 4.17L20.91 4.19Z" fill="#FE8505" fill-opacity="1.000000" fill-rule="nonzero"/>
	<path id="Vector" d="M16.06 32.73C15.57 32.73 15.22 33.08 15.2 33.57C15.2 33.83 15.28 34.06 15.44 34.22C15.59 34.38 15.81 34.47 16.06 34.47C16.3 34.47 16.53 34.4 16.69 34.24C16.85 34.08 16.95 33.85 16.95 33.61C16.95 33.36 16.85 33.14 16.69 32.99C16.53 32.83 16.32 32.75 16.06 32.75L16.06 32.73Z" fill="#FE8505" fill-opacity="1.000000" fill-rule="nonzero"/>
</svg>
