<svg width="16.000488" height="16.002930" viewBox="0 0 16.0005 16.0029" fill="none" xmlns="http://www.w3.org/2000/svg" xmlns:xlink="http://www.w3.org/1999/xlink">
	<desc>
			Created with Pixso.
	</desc>
	<defs/>
	<path id="Vector" d="M12.38 16C13.22 15.97 14.04 15.78 14.68 15.12C15.03 14.75 15.39 14.4 15.73 14.03C16.1 13.62 16.08 13.06 15.69 12.66C14.85 11.8 13.99 10.94 13.13 10.1C12.71 9.69 12.13 9.71 11.7 10.12C11.48 10.34 11.26 10.57 11.03 10.79C10.51 11.29 9.82 11.39 9.18 11.05C7.34 10.06 5.91 8.64 4.93 6.79C4.59 6.16 4.7 5.47 5.21 4.95C5.41 4.73 5.63 4.53 5.84 4.31C6.29 3.85 6.3 3.27 5.85 2.81C5.03 1.98 4.21 1.16 3.38 0.34C2.91 -0.12 2.34 -0.12 1.87 0.33C1.6 0.59 1.33 0.85 1.05 1.11C0.24 1.85 -0.06 2.79 0 3.86C0.04 4.62 0.24 5.35 0.52 6.05C1.29 7.98 2.49 9.63 3.91 11.12C5.48 12.79 7.23 14.22 9.31 15.2C10.27 15.65 11.27 15.96 12.38 16Z" fill="#C9C9C9" fill-opacity="1.000000" fill-rule="nonzero"/>
</svg>
