<svg width="11.999878" height="16.999939" viewBox="0 0 11.9999 16.9999" fill="none" xmlns="http://www.w3.org/2000/svg" xmlns:xlink="http://www.w3.org/1999/xlink">
	<desc>
			Created with Pixso.
	</desc>
	<defs/>
	<path id="Vector" d="M6.68 0C7.02 0.06 7.37 0.11 7.7 0.22C10.12 1.05 11.53 2.75 11.95 5.31C12.09 6.22 11.89 7.09 11.59 7.94C11.03 9.58 10.25 11.11 9.44 12.62C8.81 13.81 8.13 14.98 7.44 16.13C6.93 16.97 5.99 17.23 5.17 16.77C4.94 16.64 4.74 16.46 4.61 16.22C3.16 13.81 1.75 11.38 0.69 8.76C0.39 8 0.11 7.23 0.02 6.41C-0.07 5.55 0.07 4.71 0.38 3.92C1.27 1.7 2.89 0.39 5.23 0.02C5.25 0.02 5.28 0 5.31 0C5.76 0 6.22 0 6.68 0ZM5.99 8.03C7.16 8.06 8.37 7.12 8.36 5.63C8.36 4.19 7.24 3.23 5.99 3.23C4.72 3.23 3.63 4.21 3.62 5.64C3.62 7.13 4.83 8.06 5.99 8.03L5.99 8.03Z" fill="#FE8505" fill-opacity="1.000000" fill-rule="nonzero"/>
</svg>
