<svg width="14.991699" height="22.092773" viewBox="0 0 14.9917 22.0928" fill="none" xmlns="http://www.w3.org/2000/svg" xmlns:xlink="http://www.w3.org/1999/xlink">
	<desc>
			Created with Pixso.
	</desc>
	<defs/>
	<path id="Vector" d="M7.49 22.09C7.42 21.99 7.35 21.9 7.28 21.8C6.6 20.81 5.91 19.84 5.25 18.84C4.63 17.9 4.04 16.94 3.46 15.98C2.91 15.09 2.39 14.17 1.92 13.23C1.5 12.41 1.09 11.58 0.7 10.73C0.33 9.94 0.09 9.1 0.02 8.21C-0.05 7.36 0.03 6.52 0.25 5.69C0.65 4.16 1.44 2.87 2.62 1.83C3.57 1 4.65 0.45 5.87 0.18C6.75 -0.02 7.63 -0.06 8.51 0.07C9.66 0.23 10.72 0.64 11.68 1.31C13.08 2.28 14.06 3.6 14.6 5.24C14.91 6.16 15.02 7.12 14.98 8.09C14.93 8.98 14.7 9.8 14.34 10.6C14.13 11.06 13.91 11.51 13.69 11.97C13.41 12.54 13.13 13.12 12.83 13.68C12.23 14.83 11.57 15.94 10.89 17.04C9.95 18.54 8.97 20.01 7.95 21.45C7.82 21.64 7.69 21.82 7.56 22C7.54 22.03 7.52 22.05 7.49 22.09ZM7.43 11.87C9.67 11.91 11.53 10.09 11.61 7.81C11.69 5.44 9.85 3.49 7.56 3.45C5.29 3.41 3.4 5.26 3.37 7.59C3.33 9.99 5.22 11.85 7.43 11.87Z" fill="#C9C9C9" fill-opacity="1.000000" fill-rule="nonzero"/>
</svg>
