<svg width="36.320923" height="36.322693" viewBox="0 0 36.3209 36.3227" fill="none" xmlns="http://www.w3.org/2000/svg" xmlns:xlink="http://www.w3.org/1999/xlink">
	<desc>
			Created with Pixso.
	</desc>
	<defs/>
	<path id="Vector" d="M18.13 36.32C13.79 36.32 9.44 36.32 5.09 36.32C2.97 36.32 1.33 34.97 0.89 32.89C0.84 32.64 0.84 32.38 0.84 32.12C0.84 27.78 0.84 23.43 0.84 19.08C0.84 18.83 0.79 18.61 0.67 18.39C0.22 17.55 0 16.64 0 15.69C-0.01 13.54 -0.01 11.39 0 9.24C0 7.66 1.07 6.57 2.66 6.57C5.17 6.56 7.68 6.57 10.19 6.57C10.72 6.57 10.71 6.56 10.72 6.04C10.75 5.13 10.62 4.21 10.8 3.31C11.2 1.38 12.88 0.01 14.86 0C17.05 -0.01 19.25 -0.01 21.45 0C23.76 0.01 25.58 1.85 25.59 4.15C25.59 4.81 25.61 5.46 25.58 6.12C25.57 6.49 25.7 6.58 26.05 6.57C28.57 6.56 31.09 6.56 33.61 6.57C35.02 6.57 36.02 7.37 36.28 8.71C36.31 8.9 36.31 9.09 36.31 9.28C36.31 11.37 36.31 13.45 36.32 15.53C36.32 16.58 36.09 17.57 35.58 18.49C35.47 18.68 35.47 18.88 35.47 19.08C35.47 23.43 35.47 27.78 35.47 32.12C35.47 34.48 33.64 36.31 31.29 36.31C26.9 36.32 22.52 36.32 18.13 36.32L18.13 36.32ZM2.6 20.54C2.59 20.68 2.58 20.74 2.58 20.8C2.58 24.61 2.58 28.42 2.59 32.22C2.59 32.39 2.6 32.56 2.64 32.72C2.94 33.88 3.86 34.57 5.11 34.57C13.77 34.57 22.42 34.55 31.07 34.59C32.62 34.59 33.77 33.46 33.75 31.92C33.69 28.28 33.73 24.64 33.73 21.01C33.73 20.87 33.77 20.72 33.67 20.58C33.63 20.6 33.58 20.61 33.54 20.64C32.49 21.28 31.34 21.52 30.11 21.51C27.93 21.49 25.74 21.51 23.56 21.49C23.23 21.49 23.1 21.58 23.11 21.92C23.14 22.58 23.11 23.24 23.12 23.89C23.12 24.17 23.04 24.4 22.83 24.57C22.59 24.78 22.3 24.81 21.99 24.81C19.56 24.81 17.13 24.81 14.7 24.81C14.49 24.81 14.27 24.82 14.05 24.8C13.5 24.75 13.19 24.41 13.19 23.86C13.18 23.23 13.17 22.6 13.19 21.97C13.21 21.6 13.09 21.49 12.72 21.49C10.43 21.51 8.14 21.5 5.85 21.5C5.41 21.5 4.98 21.44 4.55 21.35C3.87 21.21 3.24 20.92 2.6 20.54L2.6 20.54ZM18.15 8.31C17.15 8.31 16.15 8.31 15.15 8.31C11.06 8.31 6.97 8.31 2.88 8.31C2.01 8.31 1.74 8.57 1.74 9.42C1.74 11.52 1.74 13.62 1.74 15.71C1.75 17.92 3.57 19.75 5.77 19.75C14.03 19.76 22.28 19.76 30.54 19.75C32.63 19.75 34.48 18.07 34.55 15.98C34.62 13.69 34.57 11.4 34.56 9.12C34.56 8.71 34.33 8.47 33.93 8.35C33.72 8.3 33.52 8.31 33.31 8.31C28.26 8.31 23.21 8.31 18.15 8.31L18.15 8.31ZM18.14 6.57C19.87 6.57 21.61 6.57 23.34 6.57C23.85 6.57 23.85 6.57 23.85 6.05C23.85 5.39 23.86 4.74 23.85 4.08C23.82 2.82 22.8 1.76 21.54 1.75C19.28 1.73 17.02 1.73 14.76 1.75C13.49 1.77 12.48 2.83 12.46 4.09C12.45 4.76 12.48 5.43 12.45 6.1C12.43 6.48 12.57 6.58 12.94 6.57C14.67 6.56 16.41 6.57 18.14 6.57L18.14 6.57ZM18.12 23.07L20.28 23.07C21.39 23.07 21.38 23.07 21.39 21.96C21.39 21.61 21.3 21.49 20.93 21.49C19.31 21.51 17.69 21.5 16.07 21.5C14.91 21.5 14.92 21.5 14.92 22.65C14.92 22.96 15.01 23.08 15.34 23.08C16.26 23.06 17.19 23.07 18.12 23.07Z" fill="#FE8505" fill-opacity="1.000000" fill-rule="nonzero"/>
	<circle id="Ellipse 182" cx="29.000000" cy="14.000000" r="3.200000" stroke="#FE8505" stroke-opacity="1.000000" stroke-width="1.600000"/>
</svg>
