<svg width="78.000000" height="21.000000" viewBox="0 0 78 21" fill="none" xmlns="http://www.w3.org/2000/svg" xmlns:xlink="http://www.w3.org/1999/xlink">
	<desc>
			Created with Pixso.
	</desc>
	<defs>
		<clipPath id="clip563_39528">
			<rect id="Frame 1000003273" rx="3.500000" width="77.000000" height="20.000000" transform="translate(0.500000 0.500000)" fill="white" fill-opacity="0"/>
		</clipPath>
	</defs>
	<rect id="Frame 1000003273" rx="3.500000" width="77.000000" height="20.000000" transform="translate(0.500000 0.500000)" fill="#FE8505" fill-opacity="1.000000"/>
	<g clip-path="url(#clip563_39528)">
		<path id="Продажа" d="M13.07 6.27L19.58 6.27L19.58 15L18.52 15L18.52 7.2L14.12 7.2L14.12 15L13.07 15L13.07 6.27ZM22.52 17.45L21.51 17.45L21.51 8.45L22.49 8.45L22.49 9.49L22.61 9.49C22.83 9.15 23.22 8.37 24.5 8.37C26.15 8.37 27.29 9.68 27.29 11.74C27.29 13.82 26.15 15.13 24.51 15.13C23.25 15.13 22.83 14.35 22.61 13.99L22.52 13.99L22.52 17.45ZM34.39 11.76C34.39 13.79 33.2 15.13 31.43 15.13C29.65 15.13 28.46 13.79 28.46 11.76C28.46 9.71 29.65 8.37 31.43 8.37C33.2 8.37 34.39 9.71 34.39 11.76ZM47.16 14.11C46.95 14.54 46.36 15.15 45.22 15.15C43.97 15.15 42.98 14.41 42.98 13.14C42.98 11.64 44.31 11.37 45.52 11.21C46.72 11.06 47.21 11.1 47.21 10.62L47.21 10.58C47.21 9.74 46.75 9.25 45.83 9.25C44.87 9.25 44.35 9.76 44.12 10.24L43.17 9.9C43.68 8.7 44.81 8.37 45.79 8.37C46.63 8.37 48.22 8.6 48.22 10.68L48.22 15L47.21 15L47.21 14.11L47.16 14.11ZM63.73 14.11C63.52 14.54 62.92 15.15 61.78 15.15C60.54 15.15 59.55 14.41 59.55 13.14C59.55 11.64 60.88 11.37 62.09 11.21C63.28 11.06 63.78 11.1 63.78 10.62L63.78 10.58C63.78 9.74 63.32 9.25 62.4 9.25C61.44 9.25 60.91 9.76 60.69 10.24L59.74 9.9C60.25 8.7 61.37 8.37 62.36 8.37C63.2 8.37 64.78 8.6 64.78 10.68L64.78 15L63.78 15L63.78 14.11L63.73 14.11ZM36.17 16.87L35.17 16.87L35.17 14.06L35.71 14.06C36.24 13.5 36.48 12.87 36.63 11.04L36.86 8.45L41.01 8.45L41.01 14.06L42.02 14.06L42.02 16.87L41.01 16.87L41.01 15L36.17 15L36.17 16.87ZM50.8 15L49.59 15L52.25 11.67L49.62 8.45L50.81 8.45L53 11.25L53.54 11.25L53.54 8.45L54.55 8.45L54.55 11.25L55.08 11.25L57.26 8.45L58.45 8.45L55.84 11.67L58.49 15L57.28 15L55.06 12.18L54.55 12.18L54.55 15L53.54 15L53.54 12.18L53.03 12.18L50.8 15ZM24.38 9.27C23.15 9.27 22.5 10.26 22.5 11.72C22.5 13.21 23.17 14.23 24.38 14.23C25.64 14.23 26.29 13.12 26.29 11.72C26.29 10.34 25.66 9.27 24.38 9.27ZM29.47 11.76C29.47 13.07 30.08 14.23 31.43 14.23C32.77 14.23 33.39 13.07 33.39 11.76C33.39 10.45 32.77 9.27 31.43 9.27C30.08 9.27 29.47 10.45 29.47 11.76ZM37.62 11.04C37.48 12.41 37.32 13.45 36.86 14.06L40.01 14.06L40.01 9.39L37.79 9.39L37.62 11.04ZM43.99 13.19C43.99 13.89 44.57 14.25 45.37 14.25C46.56 14.25 47.21 13.45 47.21 12.62L47.21 11.71C47.04 11.91 45.9 12.03 45.47 12.08C44.69 12.18 43.99 12.42 43.99 13.19ZM60.56 13.19C60.56 13.89 61.14 14.25 61.94 14.25C63.13 14.25 63.78 13.45 63.78 12.62L63.78 11.71C63.61 11.91 62.46 12.03 62.04 12.08C61.25 12.18 60.56 12.42 60.56 13.19Z" fill="#FFFFFF" fill-opacity="1.000000" fill-rule="evenodd"/>
	</g>
</svg>
