<svg width="41.000000" height="41.000031" viewBox="0 0 41 41" fill="none" xmlns="http://www.w3.org/2000/svg" xmlns:xlink="http://www.w3.org/1999/xlink">
	<desc>
			Created with Pixso.
	</desc>
	<defs/>
	<path id="Vector" d="M20.48 0C31.84 0.08 41 9.14 41 20.52C41 31.89 31.82 41.02 20.46 41C9.12 41 0 31.87 0 20.54C0 9.16 9.12 0.1 20.48 0ZM20.44 38.83C30.44 38.95 38.81 30.61 38.85 20.56C38.87 10.5 30.56 2.18 20.55 2.16C10.49 2.14 2.14 10.44 2.12 20.5C2.12 30.51 10.41 38.93 20.44 38.85L20.44 38.83Z" fill="#FE8505" fill-opacity="1.000000" fill-rule="nonzero"/>
	<path id="Vector" d="M20.48 36.89C11.38 36.78 4.13 29.56 4.13 20.5C4.13 11.41 11.42 4.14 20.51 4.14C29.55 4.14 36.86 11.39 36.86 20.52C36.86 29.62 29.57 36.8 20.48 36.89ZM34.7 20.52C34.8 12.73 28.29 6.31 20.55 6.29C12.78 6.29 6.29 12.69 6.29 20.5C6.29 28.24 12.7 34.7 20.46 34.72C28.25 34.74 34.78 28.3 34.7 20.52Z" fill="#FE8505" fill-opacity="1.000000" fill-rule="nonzero"/>
	<path id="Vector" d="M33.25 16.63C33.27 17.03 33.06 17.32 32.77 17.58C31.14 19.17 29.53 20.76 27.9 22.33C27.57 22.64 27.51 22.95 27.59 23.39C28 25.64 28.4 27.91 28.79 30.16C28.87 30.59 28.75 30.98 28.4 31.25C28 31.54 27.57 31.52 27.14 31.29C26.02 30.71 24.88 30.12 23.77 29.54C22.86 29.06 21.93 28.59 21.02 28.09C20.67 27.91 20.38 27.89 20.03 28.09C18.05 29.15 16.04 30.18 14.04 31.23C13.59 31.48 13.13 31.62 12.66 31.27C12.22 30.92 12.16 30.49 12.24 29.95C12.66 27.7 13.03 25.43 13.44 23.18C13.5 22.87 13.44 22.62 13.19 22.39C11.54 20.83 9.91 19.21 8.26 17.65C7.84 17.25 7.64 16.82 7.8 16.28C7.97 15.75 8.4 15.6 8.9 15.54C11.07 15.23 13.21 14.9 15.36 14.61C15.92 14.53 16.25 14.34 16.5 13.81C17.43 11.82 18.44 9.86 19.39 7.88C19.62 7.41 19.91 7.08 20.46 7.08C21.02 7.08 21.33 7.43 21.58 7.9C22.57 9.95 23.58 11.97 24.57 14.01C24.74 14.36 24.97 14.53 25.34 14.59C27.47 14.88 29.59 15.21 31.72 15.52C31.95 15.56 32.18 15.58 32.4 15.62C32.96 15.73 33.25 16.1 33.25 16.7L33.25 16.63ZM20.51 10.63C20.36 10.87 20.28 11.04 20.2 11.18C19.43 12.71 18.69 14.24 17.92 15.77C17.72 16.2 17.41 16.49 16.93 16.55C16 16.7 15.07 16.82 14.16 16.94C13.17 17.09 12.2 17.23 11.21 17.38C11.25 17.63 11.42 17.73 11.54 17.85C12.74 19.03 13.96 20.23 15.18 21.38C15.61 21.8 15.75 22.25 15.65 22.81C15.51 23.65 15.36 24.48 15.22 25.33C15.05 26.34 14.89 27.35 14.7 28.42C14.87 28.36 14.95 28.34 15.01 28.3C16.62 27.45 18.25 26.63 19.84 25.76C20.32 25.49 20.71 25.49 21.17 25.74C22.67 26.54 24.18 27.33 25.69 28.13C25.83 28.22 25.98 28.36 26.21 28.32C26.21 28.22 26.21 28.13 26.21 28.03C25.92 26.28 25.65 24.5 25.32 22.75C25.21 22.17 25.38 21.75 25.77 21.38C26.7 20.47 27.63 19.57 28.56 18.68C28.97 18.27 29.41 17.87 29.88 17.42C29.63 17.36 29.51 17.3 29.39 17.27C28 17.07 26.64 16.86 25.26 16.7C23.17 16.41 23.52 16.59 22.59 14.82C21.89 13.46 21.21 12.11 20.44 10.63L20.51 10.63Z" fill="#FE8505" fill-opacity="1.000000" fill-rule="nonzero"/>
</svg>
