<svg width="35.998535" height="36.000000" viewBox="0 0 35.9985 36" fill="none" xmlns="http://www.w3.org/2000/svg" xmlns:xlink="http://www.w3.org/1999/xlink">
	<desc>
			Created with Pixso.
	</desc>
	<defs/>
	<path id="Vector" d="M17.26 36L18.75 36C26.89 36 30.96 36 33.49 33.47C36.02 30.94 35.99 26.87 35.99 18.75L35.99 17.23C35.99 9.12 35.99 5.05 33.49 2.52C30.98 0 26.89 0 18.75 0L17.26 0C9.12 0 5.05 0 2.52 2.52C0 5.05 0 9.12 0 17.23L0 18.75C0 26.87 0 30.94 2.52 33.47C5.05 36 9.12 36 17.26 36Z" fill="#34AADF" fill-opacity="1.000000" fill-rule="nonzero"/>
	<path id="Vector" d="M8.43 16.89C8.43 16.89 18.11 12.92 21.47 11.52C22.75 10.96 27.12 9.17 27.12 9.17C27.12 9.17 29.13 8.39 28.97 10.29C28.91 11.07 28.46 13.81 28.01 16.78C27.34 20.98 26.62 25.56 26.62 25.56C26.62 25.56 26.5 26.85 25.55 27.07C24.6 27.3 23.03 26.29 22.75 26.07C22.53 25.9 18.56 23.38 17.1 22.15C16.71 21.81 16.26 21.14 17.16 20.36C19.17 18.51 21.58 16.22 23.03 14.76C23.71 14.09 24.38 12.53 21.58 14.43C17.61 17.17 13.69 19.74 13.69 19.74C13.69 19.74 12.79 20.3 11.12 19.8C9.44 19.3 7.48 18.63 7.48 18.63C7.48 18.63 6.14 17.79 8.43 16.89Z" fill="#FFFFFF" fill-opacity="1.000000" fill-rule="nonzero"/>
</svg>
