<svg width="22.000000" height="15.000000" viewBox="0 0 22 15" fill="none" xmlns="http://www.w3.org/2000/svg" xmlns:xlink="http://www.w3.org/1999/xlink">
	<desc>
			Created with Pixso.
	</desc>
	<defs/>
	<path id="Subtract" d="M1 0L22 0L22 3C19.79 3 18 4.79 18 7C18 9.2 19.79 11 22 11L22 15L0 15L0 11C2.2 11 4 9.2 4 7C4 4.79 2.2 3 0 3L0 0L1 0ZM1 1L1 2.09Q1.03 2.1 1.07 2.11Q1.52 2.21 1.94 2.39Q2.37 2.57 2.75 2.82Q3.17 3.1 3.53 3.46Q3.89 3.82 4.17 4.24Q4.42 4.62 4.6 5.05Q4.78 5.47 4.88 5.92Q5 6.44 5 7Q5 7.55 4.88 8.07Q4.78 8.52 4.6 8.94Q4.42 9.37 4.17 9.75Q3.89 10.17 3.53 10.53Q3.17 10.89 2.75 11.17Q2.37 11.42 1.94 11.6Q1.52 11.78 1.07 11.88Q1.03 11.89 1 11.9L1 14L21 14L21 11.9Q20.96 11.89 20.92 11.88Q20.47 11.78 20.05 11.6Q19.62 11.42 19.24 11.17Q18.82 10.89 18.46 10.53Q18.1 10.17 17.82 9.75Q17.57 9.37 17.39 8.94Q17.21 8.52 17.11 8.07Q17 7.55 17 7Q17 6.44 17.11 5.92Q17.21 5.47 17.39 5.05Q17.57 4.62 17.82 4.24Q18.1 3.82 18.46 3.46Q18.82 3.1 19.24 2.82Q19.62 2.57 20.05 2.39Q20.47 2.21 20.92 2.11Q20.96 2.1 21 2.09L21 1L1 1Z" fill="#FE8505" fill-opacity="1.000000" fill-rule="evenodd"/>
	<line id="Line 332" x1="14.500000" y1="1.000000" x2="14.500000" y2="14.000000" stroke="#FE8505" stroke-opacity="1.000000" stroke-width="1.000000" stroke-dasharray="2.000000,2.000000"/>
</svg>
