<svg width="35.998535" height="36.000000" viewBox="0 0 35.9985 36" fill="none" xmlns="http://www.w3.org/2000/svg" xmlns:xlink="http://www.w3.org/1999/xlink">
	<desc>
			Created with Pixso.
	</desc>
	<defs/>
	<path id="Vector" d="M17.26 36L18.75 36C26.89 36 30.96 36 33.49 33.47C36.02 30.94 35.99 26.87 35.99 18.75L35.99 17.23C35.99 9.12 35.99 5.05 33.49 2.52C30.98 0 26.89 0 18.75 0L17.26 0C9.12 0 5.05 0 2.52 2.52C0 5.05 0 9.12 0 17.23L0 18.75C0 26.87 0 30.94 2.52 33.47C5.05 36 9.12 36 17.26 36Z" fill="#0077FF" fill-opacity="1.000000" fill-rule="nonzero"/>
	<path id="Vector" d="M19.22 25.49C11.1 25.49 6.17 19.86 5.98 10.5L10.09 10.5C10.22 17.37 13.35 20.29 15.75 20.89L15.75 10.5L19.69 10.5L19.69 16.43C22 16.18 24.42 13.48 25.23 10.5L29.11 10.5C28.49 14.16 25.85 16.86 23.99 17.97C25.85 18.87 28.85 21.23 30.01 25.49L25.75 25.49C24.85 22.64 22.64 20.43 19.69 20.13L19.69 25.49L19.22 25.49L19.22 25.49Z" fill="#FFFFFF" fill-opacity="1.000000" fill-rule="nonzero"/>
</svg>
