<svg width="25.000000" height="25.002441" viewBox="0 0 25 25.0024" fill="none" xmlns="http://www.w3.org/2000/svg" xmlns:xlink="http://www.w3.org/1999/xlink">
	<desc>
			Created with Pixso.
	</desc>
	<defs/>
	<path id="Vector" d="M12.51 0C5.63 0 0.02 5.59 0.02 12.48C0.02 14.68 0.6 16.82 1.69 18.72L0 25L6.54 23.45C8.36 24.45 10.41 24.97 12.5 24.97L12.51 24.97C19.39 24.97 24.99 19.37 25 12.49C25 9.15 23.7 6.02 21.34 3.66C18.98 1.3 15.85 0 12.51 0ZM12.51 2.5C15.18 2.5 17.69 3.54 19.57 5.42C21.46 7.31 22.5 9.82 22.49 12.49C22.49 17.99 18.01 22.47 12.51 22.47C10.84 22.47 9.19 22.05 7.73 21.26L6.89 20.8L5.96 21.02L3.5 21.6L4.1 19.37L4.37 18.37L3.86 17.47C2.98 15.96 2.52 14.23 2.52 12.48C2.52 6.97 7 2.5 12.51 2.5ZM8.09 6.71C7.88 6.71 7.55 6.79 7.26 7.11C6.97 7.42 6.17 8.17 6.17 9.71C6.17 11.24 7.28 12.72 7.44 12.93C7.59 13.14 9.6 16.39 12.77 17.64C15.4 18.68 15.94 18.47 16.51 18.42C17.09 18.37 18.36 17.67 18.62 16.94C18.88 16.21 18.88 15.58 18.8 15.46C18.73 15.33 18.52 15.25 18.2 15.09C17.89 14.94 16.36 14.18 16.07 14.08C15.79 13.97 15.58 13.92 15.37 14.23C15.16 14.55 14.57 15.25 14.38 15.46C14.2 15.66 14.02 15.69 13.71 15.54C13.39 15.38 12.39 15.05 11.2 13.99C10.27 13.16 9.64 12.14 9.46 11.83C9.28 11.52 9.44 11.35 9.6 11.19C9.74 11.05 9.91 10.83 10.07 10.64C10.22 10.46 10.28 10.33 10.38 10.12C10.48 9.92 10.43 9.73 10.35 9.58C10.27 9.42 9.67 7.88 9.39 7.26C9.16 6.74 8.91 6.73 8.69 6.72C8.51 6.71 8.3 6.71 8.09 6.71Z" fill="#C9C9C9" fill-opacity="1.000000" fill-rule="nonzero"/>
</svg>
